<?xml version="1.0" encoding="utf-8"?>
<!-- Generator: Adobe Illustrator 16.0.0, SVG Export Plug-In . SVG Version: 6.00 Build 0)  -->
<!DOCTYPE svg PUBLIC "-//W3C//DTD SVG 1.1//EN" "http://www.w3.org/Graphics/SVG/1.1/DTD/svg11.dtd">
<svg version="1.1" id="Layer_1" xmlns="http://www.w3.org/2000/svg" xmlns:xlink="http://www.w3.org/1999/xlink" x="0px" y="0px"
	 width="2500px" height="2500px" viewBox="0 0 2500 2500" enable-background="new 0 0 2500 2500" xml:space="preserve">
<circle fill="#36457F" cx="1248.398" cy="1249.5" r="1250"/>
<rect x="274.508" y="258.196" fill="none" width="1950.985" height="1951"/>
<g>
	<path fill="#FFFFFF" d="M345.142,1686.141l136.992-693.495h316.768c136.982,8.564,205.479,77.051,205.479,196.924
		c0,205.478-162.666,325.341-308.223,316.776H542.065l-34.248,179.795H345.142z"/>
	<path fill="#36457F" d="M576.304,1377.928l42.813-256.854h111.299c59.932,0,102.734,25.684,102.734,77.051
		c-8.555,145.556-77.051,171.239-154.102,179.804H576.313H576.304z"/>
	<path fill="#FFFFFF" d="M972.554,1506.346l136.982-693.485h162.676l-34.248,179.785h154.102
		c136.992,8.564,188.359,77.051,171.24,162.676l-59.932,351.024h-171.23l59.932-316.776c8.555-42.813,8.555-68.496-51.367-68.496
		H1212.28l-77.051,385.272H972.554z"/>
	<path fill="#FFFFFF" d="M1492.407,1686.141l136.982-693.495h316.777c136.992,8.564,205.488,77.051,205.488,196.924
		c0,205.478-162.676,325.341-308.223,316.776h-154.111l-34.248,179.795H1492.407z"/>
	<path fill="#36457F" d="M1723.56,1377.928l42.813-256.854h111.309c59.932,0,102.734,25.684,102.734,77.051
		c-8.555,145.556-77.051,171.239-154.102,179.804h-102.744H1723.56z"/>
</g>
</svg>
